<mxfile host="Electron" modified="2023-12-30T06:50:21.291Z" agent="Mozilla/5.0 (Windows NT 10.0; Win64; x64) AppleWebKit/537.36 (KHTML, like Gecko) draw.io/22.1.16 Chrome/120.0.6099.109 Electron/28.1.0 Safari/537.36" etag="Ddm1ail71vZyejSQ6TxH" version="22.1.16" type="device">
  <diagram name="페이지-1" id="wF11qAv4kOGyGlbxa1EA">
    <mxGraphModel dx="5527" dy="3960" grid="0" gridSize="10" guides="1" tooltips="1" connect="1" arrows="1" fold="1" page="0" pageScale="1" pageWidth="1654" pageHeight="1169" background="none" math="0" shadow="1">
      <root>
        <mxCell id="0" />
        <mxCell id="1" parent="0" />
        <mxCell id="NnSU_1bKyZvshM6L6CuK-57" style="edgeStyle=orthogonalEdgeStyle;rounded=0;orthogonalLoop=1;jettySize=auto;html=1;" parent="1" source="9pvjiCO3LnK-_oB7CEIu-269" target="9pvjiCO3LnK-_oB7CEIu-285" edge="1">
          <mxGeometry relative="1" as="geometry" />
        </mxCell>
        <mxCell id="9pvjiCO3LnK-_oB7CEIu-269" value="" style="sketch=0;points=[[0,0,0],[0.25,0,0],[0.5,0,0],[0.75,0,0],[1,0,0],[0,1,0],[0.25,1,0],[0.5,1,0],[0.75,1,0],[1,1,0],[0,0.25,0],[0,0.5,0],[0,0.75,0],[1,0.25,0],[1,0.5,0],[1,0.75,0]];outlineConnect=0;fontColor=#232F3E;fillColor=#8C4FFF;strokeColor=#ffffff;dashed=0;verticalLabelPosition=bottom;verticalAlign=top;align=center;html=1;fontSize=12;fontStyle=0;aspect=fixed;shape=mxgraph.aws4.resourceIcon;resIcon=mxgraph.aws4.route_53;" parent="1" vertex="1">
          <mxGeometry x="1408.38" y="-505" width="236.71" height="236.71" as="geometry" />
        </mxCell>
        <mxCell id="9pvjiCO3LnK-_oB7CEIu-270" value="" style="sketch=0;points=[[0,0,0],[0.25,0,0],[0.5,0,0],[0.75,0,0],[1,0,0],[0,1,0],[0.25,1,0],[0.5,1,0],[0.75,1,0],[1,1,0],[0,0.25,0],[0,0.5,0],[0,0.75,0],[1,0.25,0],[1,0.5,0],[1,0.75,0]];outlineConnect=0;fontColor=#232F3E;fillColor=#8C4FFF;strokeColor=#ffffff;dashed=0;verticalLabelPosition=bottom;verticalAlign=top;align=center;html=1;fontSize=12;fontStyle=0;aspect=fixed;shape=mxgraph.aws4.resourceIcon;resIcon=mxgraph.aws4.cloudfront;" parent="1" vertex="1">
          <mxGeometry x="225" y="-503.00000000000006" width="237.69" height="237.69" as="geometry" />
        </mxCell>
        <mxCell id="9pvjiCO3LnK-_oB7CEIu-271" value="" style="sketch=0;points=[[0,0,0],[0.25,0,0],[0.5,0,0],[0.75,0,0],[1,0,0],[0,1,0],[0.25,1,0],[0.5,1,0],[0.75,1,0],[1,1,0],[0,0.25,0],[0,0.5,0],[0,0.75,0],[1,0.25,0],[1,0.5,0],[1,0.75,0]];outlineConnect=0;fontColor=#232F3E;fillColor=#8C4FFF;strokeColor=#ffffff;dashed=0;verticalLabelPosition=bottom;verticalAlign=top;align=center;html=1;fontSize=12;fontStyle=0;aspect=fixed;shape=mxgraph.aws4.resourceIcon;resIcon=mxgraph.aws4.direct_connect;" parent="1" vertex="1">
          <mxGeometry x="1330" y="2310" width="350" height="350" as="geometry" />
        </mxCell>
        <mxCell id="9pvjiCO3LnK-_oB7CEIu-217" value="&lt;font style=&quot;font-size: 50px;&quot;&gt;AWS Cloud&lt;/font&gt;" style="points=[[0,0],[0.25,0],[0.5,0],[0.75,0],[1,0],[1,0.25],[1,0.5],[1,0.75],[1,1],[0.75,1],[0.5,1],[0.25,1],[0,1],[0,0.75],[0,0.5],[0,0.25]];outlineConnect=0;gradientColor=none;html=1;whiteSpace=wrap;fontSize=12;fontStyle=0;container=0;pointerEvents=0;collapsible=0;recursiveResize=0;shape=mxgraph.aws4.group;grIcon=mxgraph.aws4.group_aws_cloud_alt;strokeColor=#232F3E;fillColor=none;verticalAlign=top;align=left;spacingLeft=30;fontColor=#232F3E;dashed=0;" parent="1" vertex="1">
          <mxGeometry x="-570" y="-590" width="3840" height="2690" as="geometry" />
        </mxCell>
        <mxCell id="9pvjiCO3LnK-_oB7CEIu-220" value="&lt;font style=&quot;font-size: 50px;&quot;&gt;Region&lt;/font&gt;" style="points=[[0,0],[0.25,0],[0.5,0],[0.75,0],[1,0],[1,0.25],[1,0.5],[1,0.75],[1,1],[0.75,1],[0.5,1],[0.25,1],[0,1],[0,0.75],[0,0.5],[0,0.25]];outlineConnect=0;gradientColor=none;html=1;whiteSpace=wrap;fontSize=12;fontStyle=0;container=0;pointerEvents=0;collapsible=0;recursiveResize=0;shape=mxgraph.aws4.group;grIcon=mxgraph.aws4.group_region;strokeColor=#00A4A6;fillColor=none;verticalAlign=top;align=left;spacingLeft=30;fontColor=#147EBA;dashed=1;" parent="1" vertex="1">
          <mxGeometry x="-410" y="-161" width="3600" height="2141" as="geometry" />
        </mxCell>
        <mxCell id="9pvjiCO3LnK-_oB7CEIu-240" value="&lt;font color=&quot;#000000&quot; style=&quot;font-size: 50px;&quot;&gt;VPC&lt;/font&gt;" style="points=[[0,0],[0.25,0],[0.5,0],[0.75,0],[1,0],[1,0.25],[1,0.5],[1,0.75],[1,1],[0.75,1],[0.5,1],[0.25,1],[0,1],[0,0.75],[0,0.5],[0,0.25]];outlineConnect=0;gradientColor=none;html=1;whiteSpace=wrap;fontSize=12;fontStyle=0;container=0;pointerEvents=0;collapsible=0;recursiveResize=0;shape=mxgraph.aws4.group;grIcon=mxgraph.aws4.group_vpc2;strokeColor=#8C4FFF;fillColor=none;verticalAlign=top;align=left;spacingLeft=30;fontColor=#AAB7B8;dashed=0;" parent="1" vertex="1">
          <mxGeometry x="-60" y="-20" width="3150" height="1910" as="geometry" />
        </mxCell>
        <mxCell id="9pvjiCO3LnK-_oB7CEIu-222" value="&lt;font style=&quot;font-size: 50px;&quot;&gt;ap-norhteast-2a&lt;/font&gt;" style="fillColor=none;strokeColor=#147EBA;dashed=1;verticalAlign=top;fontStyle=0;fontColor=#147EBA;whiteSpace=wrap;html=1;container=0;" parent="1" vertex="1">
          <mxGeometry y="100" width="1386.86" height="1750" as="geometry" />
        </mxCell>
        <mxCell id="9pvjiCO3LnK-_oB7CEIu-224" value="&lt;font style=&quot;font-size: 50px;&quot;&gt;Private Subnet 1 (Web)&lt;/font&gt;" style="points=[[0,0],[0.25,0],[0.5,0],[0.75,0],[1,0],[1,0.25],[1,0.5],[1,0.75],[1,1],[0.75,1],[0.5,1],[0.25,1],[0,1],[0,0.75],[0,0.5],[0,0.25]];outlineConnect=0;gradientColor=none;html=1;whiteSpace=wrap;fontSize=12;fontStyle=0;container=0;pointerEvents=0;collapsible=0;recursiveResize=0;shape=mxgraph.aws4.group;grIcon=mxgraph.aws4.group_security_group;grStroke=0;strokeColor=#00A4A6;fillColor=#E6F6F7;verticalAlign=top;align=left;spacingLeft=30;fontColor=#147EBA;dashed=0;" parent="1" vertex="1">
          <mxGeometry x="80" y="710" width="1260" height="480" as="geometry" />
        </mxCell>
        <mxCell id="9pvjiCO3LnK-_oB7CEIu-234" value="&lt;font style=&quot;font-size: 50px;&quot;&gt;Public Subnet 1&lt;/font&gt;" style="points=[[0,0],[0.25,0],[0.5,0],[0.75,0],[1,0],[1,0.25],[1,0.5],[1,0.75],[1,1],[0.75,1],[0.5,1],[0.25,1],[0,1],[0,0.75],[0,0.5],[0,0.25]];outlineConnect=0;gradientColor=none;html=1;whiteSpace=wrap;fontSize=12;fontStyle=0;container=0;pointerEvents=0;collapsible=0;recursiveResize=0;shape=mxgraph.aws4.group;grIcon=mxgraph.aws4.group_security_group;grStroke=0;strokeColor=#7AA116;fillColor=#F2F6E8;verticalAlign=top;align=left;spacingLeft=30;fontColor=#248814;dashed=0;" parent="1" vertex="1">
          <mxGeometry x="80" y="190" width="1263.72" height="460" as="geometry" />
        </mxCell>
        <mxCell id="9pvjiCO3LnK-_oB7CEIu-223" value="&lt;font style=&quot;font-size: 50px;&quot;&gt;ap-northeast-2c&lt;/font&gt;" style="fillColor=none;strokeColor=#147EBA;dashed=1;verticalAlign=top;fontStyle=0;fontColor=#147EBA;whiteSpace=wrap;html=1;container=0;" parent="1" vertex="1">
          <mxGeometry x="1680" y="100" width="1360" height="1740" as="geometry" />
        </mxCell>
        <mxCell id="9pvjiCO3LnK-_oB7CEIu-241" value="&lt;font style=&quot;font-size: 50px;&quot;&gt;DB Subnet 1&lt;/font&gt;" style="points=[[0,0],[0.25,0],[0.5,0],[0.75,0],[1,0],[1,0.25],[1,0.5],[1,0.75],[1,1],[0.75,1],[0.5,1],[0.25,1],[0,1],[0,0.75],[0,0.5],[0,0.25]];outlineConnect=0;gradientColor=none;html=1;whiteSpace=wrap;fontSize=12;fontStyle=0;container=0;pointerEvents=0;collapsible=0;recursiveResize=0;shape=mxgraph.aws4.group;grIcon=mxgraph.aws4.group_security_group;grStroke=0;strokeColor=#00A4A6;fillColor=#E6F6F7;verticalAlign=top;align=left;spacingLeft=30;fontColor=#147EBA;dashed=0;" parent="1" vertex="1">
          <mxGeometry x="83.72" y="1290" width="1260" height="480" as="geometry" />
        </mxCell>
        <mxCell id="9pvjiCO3LnK-_oB7CEIu-249" value="&lt;font style=&quot;font-size: 50px;&quot;&gt;Private Subnet 2 (Web)&lt;/font&gt;" style="points=[[0,0],[0.25,0],[0.5,0],[0.75,0],[1,0],[1,0.25],[1,0.5],[1,0.75],[1,1],[0.75,1],[0.5,1],[0.25,1],[0,1],[0,0.75],[0,0.5],[0,0.25]];outlineConnect=0;gradientColor=none;html=1;whiteSpace=wrap;fontSize=12;fontStyle=0;container=0;pointerEvents=0;collapsible=0;recursiveResize=0;shape=mxgraph.aws4.group;grIcon=mxgraph.aws4.group_security_group;grStroke=0;strokeColor=#00A4A6;fillColor=#E6F6F7;verticalAlign=top;align=left;spacingLeft=30;fontColor=#147EBA;dashed=0;" parent="1" vertex="1">
          <mxGeometry x="1710" y="710" width="1250" height="480" as="geometry" />
        </mxCell>
        <mxCell id="9pvjiCO3LnK-_oB7CEIu-250" value="&lt;font style=&quot;font-size: 50px;&quot;&gt;Public Subnet 2&lt;/font&gt;" style="points=[[0,0],[0.25,0],[0.5,0],[0.75,0],[1,0],[1,0.25],[1,0.5],[1,0.75],[1,1],[0.75,1],[0.5,1],[0.25,1],[0,1],[0,0.75],[0,0.5],[0,0.25]];outlineConnect=0;gradientColor=none;html=1;whiteSpace=wrap;fontSize=12;fontStyle=0;container=0;pointerEvents=0;collapsible=0;recursiveResize=0;shape=mxgraph.aws4.group;grIcon=mxgraph.aws4.group_security_group;grStroke=0;strokeColor=#7AA116;fillColor=#F2F6E8;verticalAlign=top;align=left;spacingLeft=30;fontColor=#248814;dashed=0;" parent="1" vertex="1">
          <mxGeometry x="1715" y="185" width="1245" height="470" as="geometry" />
        </mxCell>
        <mxCell id="9pvjiCO3LnK-_oB7CEIu-252" value="&lt;font style=&quot;font-size: 50px;&quot;&gt;DB Subnet 2&lt;/font&gt;" style="points=[[0,0],[0.25,0],[0.5,0],[0.75,0],[1,0],[1,0.25],[1,0.5],[1,0.75],[1,1],[0.75,1],[0.5,1],[0.25,1],[0,1],[0,0.75],[0,0.5],[0,0.25]];outlineConnect=0;gradientColor=none;html=1;whiteSpace=wrap;fontSize=12;fontStyle=0;container=0;pointerEvents=0;collapsible=0;recursiveResize=0;shape=mxgraph.aws4.group;grIcon=mxgraph.aws4.group_security_group;grStroke=0;strokeColor=#00A4A6;fillColor=#E6F6F7;verticalAlign=top;align=left;spacingLeft=30;fontColor=#147EBA;dashed=0;" parent="1" vertex="1">
          <mxGeometry x="1710" y="1290" width="1270" height="480" as="geometry" />
        </mxCell>
        <mxCell id="NnSU_1bKyZvshM6L6CuK-61" style="edgeStyle=orthogonalEdgeStyle;rounded=0;orthogonalLoop=1;jettySize=auto;html=1;" parent="1" source="9pvjiCO3LnK-_oB7CEIu-254" target="NnSU_1bKyZvshM6L6CuK-17" edge="1">
          <mxGeometry relative="1" as="geometry" />
        </mxCell>
        <mxCell id="9pvjiCO3LnK-_oB7CEIu-254" value="" style="sketch=0;points=[[0,0,0],[0.25,0,0],[0.5,0,0],[0.75,0,0],[1,0,0],[0,1,0],[0.25,1,0],[0.5,1,0],[0.75,1,0],[1,1,0],[0,0.25,0],[0,0.5,0],[0,0.75,0],[1,0.25,0],[1,0.5,0],[1,0.75,0]];outlineConnect=0;fontColor=#232F3E;fillColor=#ED7100;strokeColor=#ffffff;dashed=0;verticalLabelPosition=bottom;verticalAlign=top;align=center;html=1;fontSize=12;fontStyle=0;aspect=fixed;shape=mxgraph.aws4.resourceIcon;resIcon=mxgraph.aws4.ec2;container=0;" parent="1" vertex="1">
          <mxGeometry x="591.86" y="300" width="240" height="240" as="geometry" />
        </mxCell>
        <mxCell id="9pvjiCO3LnK-_oB7CEIu-262" value="&lt;font style=&quot;font-size: 50px;&quot;&gt;Auto Scaling group &lt;br&gt;(WEB)&lt;/font&gt;" style="points=[[0,0],[0.25,0],[0.5,0],[0.75,0],[1,0],[1,0.25],[1,0.5],[1,0.75],[1,1],[0.75,1],[0.5,1],[0.25,1],[0,1],[0,0.75],[0,0.5],[0,0.25]];outlineConnect=0;gradientColor=none;html=1;whiteSpace=wrap;fontSize=12;fontStyle=0;container=0;pointerEvents=0;collapsible=0;recursiveResize=0;shape=mxgraph.aws4.groupCenter;grIcon=mxgraph.aws4.group_auto_scaling_group;grStroke=1;strokeColor=#D86613;fillColor=none;verticalAlign=top;align=center;fontColor=#D86613;dashed=1;spacingTop=25;" parent="1" vertex="1">
          <mxGeometry x="46.86" y="680" width="2943.14" height="540" as="geometry" />
        </mxCell>
        <mxCell id="9pvjiCO3LnK-_oB7CEIu-274" value="" style="sketch=0;outlineConnect=0;fontColor=#232F3E;gradientColor=none;fillColor=#8C4FFF;strokeColor=none;dashed=0;verticalLabelPosition=bottom;verticalAlign=top;align=center;html=1;fontSize=12;fontStyle=0;aspect=fixed;pointerEvents=1;shape=mxgraph.aws4.nat_gateway;container=0;" parent="1" vertex="1">
          <mxGeometry x="1110" y="230" width="184.36" height="184.36" as="geometry" />
        </mxCell>
        <mxCell id="9pvjiCO3LnK-_oB7CEIu-242" value="" style="sketch=0;points=[[0,0,0],[0.25,0,0],[0.5,0,0],[0.75,0,0],[1,0,0],[0,1,0],[0.25,1,0],[0.5,1,0],[0.75,1,0],[1,1,0],[0,0.25,0],[0,0.5,0],[0,0.75,0],[1,0.25,0],[1,0.5,0],[1,0.75,0]];outlineConnect=0;fontColor=#232F3E;fillColor=#C925D1;strokeColor=#ffffff;dashed=0;verticalLabelPosition=bottom;verticalAlign=top;align=center;html=1;fontSize=12;fontStyle=0;aspect=fixed;shape=mxgraph.aws4.resourceIcon;resIcon=mxgraph.aws4.rds;container=0;" parent="1" vertex="1">
          <mxGeometry x="450" y="1360" width="260" height="260" as="geometry" />
        </mxCell>
        <mxCell id="9pvjiCO3LnK-_oB7CEIu-267" value="" style="sketch=0;outlineConnect=0;fontColor=#232F3E;gradientColor=none;fillColor=#C925D1;strokeColor=none;dashed=0;verticalLabelPosition=bottom;verticalAlign=top;align=center;html=1;fontSize=12;fontStyle=0;aspect=fixed;pointerEvents=1;shape=mxgraph.aws4.rds_mariadb_instance_alt;container=0;" parent="1" vertex="1">
          <mxGeometry x="730" y="1358.19" width="263.61" height="263.61" as="geometry" />
        </mxCell>
        <mxCell id="9pvjiCO3LnK-_oB7CEIu-253" value="" style="sketch=0;points=[[0,0,0],[0.25,0,0],[0.5,0,0],[0.75,0,0],[1,0,0],[0,1,0],[0.25,1,0],[0.5,1,0],[0.75,1,0],[1,1,0],[0,0.25,0],[0,0.5,0],[0,0.75,0],[1,0.25,0],[1,0.5,0],[1,0.75,0]];outlineConnect=0;fontColor=#232F3E;fillColor=#C925D1;strokeColor=#ffffff;dashed=0;verticalLabelPosition=bottom;verticalAlign=top;align=center;html=1;fontSize=12;fontStyle=0;aspect=fixed;shape=mxgraph.aws4.resourceIcon;resIcon=mxgraph.aws4.rds;container=0;" parent="1" vertex="1">
          <mxGeometry x="2070" y="1358.19" width="274.35" height="274.35" as="geometry" />
        </mxCell>
        <mxCell id="9pvjiCO3LnK-_oB7CEIu-268" value="" style="sketch=0;outlineConnect=0;fontColor=#232F3E;gradientColor=none;fillColor=#C925D1;strokeColor=none;dashed=0;verticalLabelPosition=bottom;verticalAlign=top;align=center;html=1;fontSize=12;fontStyle=0;aspect=fixed;pointerEvents=1;shape=mxgraph.aws4.rds_mariadb_instance_alt;container=0;" parent="1" vertex="1">
          <mxGeometry x="2360" y="1358.19" width="284.35" height="284.35" as="geometry" />
        </mxCell>
        <mxCell id="9pvjiCO3LnK-_oB7CEIu-285" value="" style="sketch=0;points=[[0,0,0],[0.25,0,0],[0.5,0,0],[0.75,0,0],[1,0,0],[0,1,0],[0.25,1,0],[0.5,1,0],[0.75,1,0],[1,1,0],[0,0.25,0],[0,0.5,0],[0,0.75,0],[1,0.25,0],[1,0.5,0],[1,0.75,0]];outlineConnect=0;fontColor=#232F3E;fillColor=#8C4FFF;strokeColor=#ffffff;dashed=0;verticalLabelPosition=bottom;verticalAlign=top;align=center;html=1;fontSize=12;fontStyle=0;aspect=fixed;shape=mxgraph.aws4.resourceIcon;resIcon=mxgraph.aws4.elastic_load_balancing;" parent="1" vertex="1">
          <mxGeometry x="1410" y="366.53" width="233.47" height="233.47" as="geometry" />
        </mxCell>
        <mxCell id="9pvjiCO3LnK-_oB7CEIu-299" value="&lt;font style=&quot;font-size: 50px;&quot;&gt;EC2 Bastionhost&lt;/font&gt;" style="text;html=1;strokeColor=none;fillColor=none;align=center;verticalAlign=middle;whiteSpace=wrap;rounded=0;" parent="1" vertex="1">
          <mxGeometry x="520.7799999999999" y="570" width="378.44" height="30" as="geometry" />
        </mxCell>
        <mxCell id="9pvjiCO3LnK-_oB7CEIu-303" value="&lt;font style=&quot;font-size: 50px;&quot;&gt;EC2 WEB(WordPress)&lt;/font&gt;" style="text;html=1;strokeColor=none;fillColor=none;align=center;verticalAlign=middle;whiteSpace=wrap;rounded=0;" parent="1" vertex="1">
          <mxGeometry x="470.0000000000001" y="1100" width="510" height="30" as="geometry" />
        </mxCell>
        <mxCell id="9pvjiCO3LnK-_oB7CEIu-304" value="" style="sketch=0;points=[[0,0,0],[0.25,0,0],[0.5,0,0],[0.75,0,0],[1,0,0],[0,1,0],[0.25,1,0],[0.5,1,0],[0.75,1,0],[1,1,0],[0,0.25,0],[0,0.5,0],[0,0.75,0],[1,0.25,0],[1,0.5,0],[1,0.75,0]];outlineConnect=0;fontColor=#232F3E;fillColor=#7AA116;strokeColor=#ffffff;dashed=0;verticalLabelPosition=bottom;verticalAlign=top;align=center;html=1;fontSize=12;fontStyle=0;aspect=fixed;shape=mxgraph.aws4.resourceIcon;resIcon=mxgraph.aws4.s3;" parent="1" vertex="1">
          <mxGeometry x="-367" y="1323" width="260" height="260" as="geometry" />
        </mxCell>
        <mxCell id="3bwJ1n72jsKAKIuW36Fx-11" value="" style="endArrow=classic;startArrow=classic;html=1;rounded=0;exitX=0.5;exitY=0;exitDx=0;exitDy=0;exitPerimeter=0;" parent="1" source="9pvjiCO3LnK-_oB7CEIu-269" target="3bwJ1n72jsKAKIuW36Fx-19" edge="1">
          <mxGeometry width="50" height="50" relative="1" as="geometry">
            <mxPoint x="1646" y="-310" as="sourcePoint" />
            <mxPoint x="1639" y="-540" as="targetPoint" />
          </mxGeometry>
        </mxCell>
        <mxCell id="3bwJ1n72jsKAKIuW36Fx-16" value="&lt;font style=&quot;&quot;&gt;&lt;span style=&quot;font-size: 50px;&quot;&gt;Master&lt;/span&gt;&lt;br&gt;&lt;/font&gt;" style="text;html=1;strokeColor=none;fillColor=none;align=center;verticalAlign=middle;whiteSpace=wrap;rounded=0;" parent="1" vertex="1">
          <mxGeometry x="692.59" y="1660" width="48.55" height="20" as="geometry" />
        </mxCell>
        <mxCell id="3bwJ1n72jsKAKIuW36Fx-18" value="&lt;font style=&quot;font-size: 50px;&quot;&gt;Slave&lt;/font&gt;" style="text;html=1;strokeColor=none;fillColor=none;align=center;verticalAlign=middle;whiteSpace=wrap;rounded=0;" parent="1" vertex="1">
          <mxGeometry x="2315.0000000000005" y="1670" width="60" height="30" as="geometry" />
        </mxCell>
        <mxCell id="3bwJ1n72jsKAKIuW36Fx-19" value="&lt;font style=&quot;font-size: 50px;&quot;&gt;users&lt;/font&gt;" style="sketch=0;outlineConnect=0;gradientColor=none;fontColor=#545B64;strokeColor=none;fillColor=#879196;dashed=0;verticalLabelPosition=bottom;verticalAlign=top;align=center;html=1;fontSize=12;fontStyle=0;aspect=fixed;shape=mxgraph.aws4.illustration_users;pointerEvents=1" parent="1" vertex="1">
          <mxGeometry x="1416.74" y="-1117" width="220" height="220" as="geometry" />
        </mxCell>
        <mxCell id="iwebeWgkrtmEPMFrBYPV-3" value="&lt;font style=&quot;font-size: 50px;&quot;&gt;DB Subnet Group&lt;/font&gt;" style="fillColor=none;strokeColor=#5A6C86;dashed=1;verticalAlign=top;fontStyle=0;fontColor=#5A6C86;whiteSpace=wrap;html=1;" parent="1" vertex="1">
          <mxGeometry x="46.86" y="1260.34" width="2943.14" height="539.66" as="geometry" />
        </mxCell>
        <mxCell id="NnSU_1bKyZvshM6L6CuK-1" style="edgeStyle=orthogonalEdgeStyle;rounded=0;orthogonalLoop=1;jettySize=auto;html=1;entryX=0.5;entryY=0;entryDx=0;entryDy=0;entryPerimeter=0;" parent="1" source="9pvjiCO3LnK-_oB7CEIu-270" target="9pvjiCO3LnK-_oB7CEIu-304" edge="1">
          <mxGeometry relative="1" as="geometry" />
        </mxCell>
        <mxCell id="NnSU_1bKyZvshM6L6CuK-10" value="&lt;font style=&quot;font-size: 50px;&quot;&gt;EC2 WEB(WordPress)&lt;/font&gt;" style="text;html=1;strokeColor=none;fillColor=none;align=center;verticalAlign=middle;whiteSpace=wrap;rounded=0;" parent="1" vertex="1">
          <mxGeometry x="2060" y="1100" width="510" height="30" as="geometry" />
        </mxCell>
        <mxCell id="NnSU_1bKyZvshM6L6CuK-17" value="" style="sketch=0;points=[[0,0,0],[0.25,0,0],[0.5,0,0],[0.75,0,0],[1,0,0],[0,1,0],[0.25,1,0],[0.5,1,0],[0.75,1,0],[1,1,0],[0,0.25,0],[0,0.5,0],[0,0.75,0],[1,0.25,0],[1,0.5,0],[1,0.75,0]];outlineConnect=0;fontColor=#232F3E;fillColor=#ED7100;strokeColor=#ffffff;dashed=0;verticalLabelPosition=bottom;verticalAlign=top;align=center;html=1;fontSize=12;fontStyle=0;aspect=fixed;shape=mxgraph.aws4.resourceIcon;resIcon=mxgraph.aws4.ec2;container=0;" parent="1" vertex="1">
          <mxGeometry x="586.86" y="830" width="250" height="250" as="geometry" />
        </mxCell>
        <mxCell id="NnSU_1bKyZvshM6L6CuK-25" style="edgeStyle=orthogonalEdgeStyle;rounded=0;orthogonalLoop=1;jettySize=auto;html=1;entryX=0.5;entryY=0;entryDx=0;entryDy=0;entryPerimeter=0;curved=1;" parent="1" source="9pvjiCO3LnK-_oB7CEIu-285" target="NnSU_1bKyZvshM6L6CuK-17" edge="1">
          <mxGeometry relative="1" as="geometry" />
        </mxCell>
        <mxCell id="NnSU_1bKyZvshM6L6CuK-30" value="" style="endArrow=classic;startArrow=classic;html=1;rounded=0;exitX=1;exitY=0.5;exitDx=0;exitDy=0;exitPerimeter=0;entryX=0;entryY=0.5;entryDx=0;entryDy=0;entryPerimeter=0;" parent="1" source="9pvjiCO3LnK-_oB7CEIu-270" target="9pvjiCO3LnK-_oB7CEIu-269" edge="1">
          <mxGeometry width="50" height="50" relative="1" as="geometry">
            <mxPoint x="1520" y="-10" as="sourcePoint" />
            <mxPoint x="1570" y="-60" as="targetPoint" />
            <Array as="points" />
          </mxGeometry>
        </mxCell>
        <mxCell id="NnSU_1bKyZvshM6L6CuK-32" value="&lt;font style=&quot;font-size: 50px;&quot;&gt;S3&lt;/font&gt;" style="text;html=1;strokeColor=none;fillColor=none;align=center;verticalAlign=middle;whiteSpace=wrap;rounded=0;" parent="1" vertex="1">
          <mxGeometry x="-230" y="1610" width="60" height="30" as="geometry" />
        </mxCell>
        <mxCell id="NnSU_1bKyZvshM6L6CuK-33" value="&lt;font style=&quot;font-size: 50px;&quot;&gt;CloudFront&lt;/font&gt;" style="text;html=1;strokeColor=none;fillColor=none;align=center;verticalAlign=middle;whiteSpace=wrap;rounded=0;" parent="1" vertex="1">
          <mxGeometry x="313.84000000000003" y="-248" width="60" height="40" as="geometry" />
        </mxCell>
        <mxCell id="NnSU_1bKyZvshM6L6CuK-34" value="&lt;font style=&quot;font-size: 50px;&quot;&gt;Route 53&lt;/font&gt;" style="text;html=1;strokeColor=none;fillColor=none;align=center;verticalAlign=middle;whiteSpace=wrap;rounded=0;" parent="1" vertex="1">
          <mxGeometry x="1425" y="-268.28999999999996" width="210" height="75" as="geometry" />
        </mxCell>
        <mxCell id="NnSU_1bKyZvshM6L6CuK-43" value="&lt;span style=&quot;font-size: 50px;&quot;&gt;Admin&lt;/span&gt;" style="sketch=0;outlineConnect=0;gradientColor=none;fontColor=#545B64;strokeColor=none;fillColor=#879196;dashed=0;verticalLabelPosition=bottom;verticalAlign=top;align=center;html=1;fontSize=12;fontStyle=0;aspect=fixed;shape=mxgraph.aws4.illustration_desktop;pointerEvents=1" parent="1" vertex="1">
          <mxGeometry x="590.98" y="-976" width="241.76" height="220" as="geometry" />
        </mxCell>
        <mxCell id="NnSU_1bKyZvshM6L6CuK-48" value="" style="sketch=0;points=[[0,0,0],[0.25,0,0],[0.5,0,0],[0.75,0,0],[1,0,0],[0,1,0],[0.25,1,0],[0.5,1,0],[0.75,1,0],[1,1,0],[0,0.25,0],[0,0.5,0],[0,0.75,0],[1,0.25,0],[1,0.5,0],[1,0.75,0]];outlineConnect=0;fontColor=#232F3E;fillColor=#ED7100;strokeColor=#ffffff;dashed=0;verticalLabelPosition=bottom;verticalAlign=top;align=center;html=1;fontSize=12;fontStyle=0;aspect=fixed;shape=mxgraph.aws4.resourceIcon;resIcon=mxgraph.aws4.ec2;container=0;" parent="1" vertex="1">
          <mxGeometry x="2207.18" y="300" width="240" height="240" as="geometry" />
        </mxCell>
        <mxCell id="NnSU_1bKyZvshM6L6CuK-51" value="" style="sketch=0;points=[[0,0,0],[0.25,0,0],[0.5,0,0],[0.75,0,0],[1,0,0],[0,1,0],[0.25,1,0],[0.5,1,0],[0.75,1,0],[1,1,0],[0,0.25,0],[0,0.5,0],[0,0.75,0],[1,0.25,0],[1,0.5,0],[1,0.75,0]];outlineConnect=0;fontColor=#232F3E;fillColor=#ED7100;strokeColor=#ffffff;dashed=0;verticalLabelPosition=bottom;verticalAlign=top;align=center;html=1;fontSize=12;fontStyle=0;aspect=fixed;shape=mxgraph.aws4.resourceIcon;resIcon=mxgraph.aws4.ec2;container=0;" parent="1" vertex="1">
          <mxGeometry x="2202.18" y="823.44" width="250" height="250" as="geometry" />
        </mxCell>
        <mxCell id="NnSU_1bKyZvshM6L6CuK-52" style="edgeStyle=orthogonalEdgeStyle;rounded=0;orthogonalLoop=1;jettySize=auto;html=1;entryX=0.5;entryY=0;entryDx=0;entryDy=0;entryPerimeter=0;curved=1;" parent="1" source="9pvjiCO3LnK-_oB7CEIu-285" target="NnSU_1bKyZvshM6L6CuK-51" edge="1">
          <mxGeometry relative="1" as="geometry" />
        </mxCell>
        <mxCell id="NnSU_1bKyZvshM6L6CuK-55" style="edgeStyle=orthogonalEdgeStyle;rounded=0;orthogonalLoop=1;jettySize=auto;html=1;entryX=0.5;entryY=0;entryDx=0;entryDy=0;entryPerimeter=0;" parent="1" source="NnSU_1bKyZvshM6L6CuK-43" target="9pvjiCO3LnK-_oB7CEIu-254" edge="1">
          <mxGeometry relative="1" as="geometry" />
        </mxCell>
        <mxCell id="NnSU_1bKyZvshM6L6CuK-58" style="edgeStyle=orthogonalEdgeStyle;rounded=0;orthogonalLoop=1;jettySize=auto;html=1;entryX=0;entryY=0.5;entryDx=0;entryDy=0;entryPerimeter=0;" parent="1" source="9pvjiCO3LnK-_oB7CEIu-304" target="9pvjiCO3LnK-_oB7CEIu-270" edge="1">
          <mxGeometry relative="1" as="geometry">
            <Array as="points">
              <mxPoint x="-237" y="-384" />
            </Array>
          </mxGeometry>
        </mxCell>
        <mxCell id="NnSU_1bKyZvshM6L6CuK-64" style="edgeStyle=orthogonalEdgeStyle;rounded=0;orthogonalLoop=1;jettySize=auto;html=1;" parent="1" source="9pvjiCO3LnK-_oB7CEIu-303" edge="1">
          <mxGeometry relative="1" as="geometry">
            <mxPoint x="721" y="1350" as="targetPoint" />
          </mxGeometry>
        </mxCell>
        <mxCell id="NnSU_1bKyZvshM6L6CuK-66" style="edgeStyle=orthogonalEdgeStyle;rounded=0;orthogonalLoop=1;jettySize=auto;html=1;entryX=0.786;entryY=0.129;entryDx=0;entryDy=0;entryPerimeter=0;" parent="1" source="9pvjiCO3LnK-_oB7CEIu-303" target="iwebeWgkrtmEPMFrBYPV-3" edge="1">
          <mxGeometry relative="1" as="geometry">
            <Array as="points">
              <mxPoint x="721" y="1240" />
              <mxPoint x="2360" y="1240" />
            </Array>
          </mxGeometry>
        </mxCell>
        <mxCell id="WKtmubEi_M_aeS0KcEQV-1" value="&lt;span style=&quot;font-size: 50px;&quot;&gt;Direct Connect&lt;/span&gt;" style="text;html=1;strokeColor=none;fillColor=none;align=center;verticalAlign=middle;whiteSpace=wrap;rounded=0;" parent="1" vertex="1">
          <mxGeometry x="1327.5" y="2680" width="375" height="30" as="geometry" />
        </mxCell>
      </root>
    </mxGraphModel>
  </diagram>
</mxfile>
